<svg width="571" height="571" viewBox="0 0 571 571" fill="none" xmlns="http://www.w3.org/2000/svg">
<path d="M100.884 7.34099C103.643 28.3112 115.098 88.7393 157.978 123.774C210.478 166.668 304.98 152.391 379.568 116.306C442.667 85.7795 527.108 29.7586 558.534 8.45009C563.835 4.85629 571.003 8.68494 571 15.0796C570.929 187.875 569.675 351.563 569.581 465.339C569.576 471.29 563.241 475.089 557.961 472.325L480.4 431.719C477.789 430.352 476.154 427.653 476.154 424.711V144.796C476.154 138.091 468.321 134.424 463.154 138.71L290.618 281.822C287.73 284.217 283.554 284.263 280.614 281.93L108.191 145.14C102.995 141.017 95.3256 144.71 95.3256 151.334V225.615C95.3256 231.505 89.1082 235.331 83.8342 232.687L0.416598 190.857C0.225416 190.761 0.000156289 190.861 0.000158088 190.647C0.000230288 182.079 0.000642807 104.278 1.83031e-10 8.85912C-2.92143e-05 4.52249 3.49724 0.986677 7.84263 0.938572L92.5809 0.000499135C96.7904 -0.0461005 100.336 3.17576 100.884 7.34099Z" fill="#89A5D1"/>
<path fill-rule="evenodd" clip-rule="evenodd" d="M95.0089 291.914C95.0089 288.926 93.3223 286.193 90.6486 284.847L11.5012 245.026C6.22659 242.373 0.000254897 246.198 0.000254897 252.093V563.086C0.000254897 567.457 3.5509 571 7.93085 571H562.28C566.66 571 570.211 567.457 570.211 563.086V537.578C570.211 534.585 568.519 531.848 565.839 530.505L460.386 477.663C459.281 477.11 458.063 476.822 456.827 476.822H102.939C98.5595 476.822 95.0089 473.279 95.0089 468.908V291.914Z" fill="#436EB3"/>
</svg>
